# xmcd
#
# Track frame offsets: 
#        150
#        20795
#        39297
#        55746
#        63339
#        74759
#        87261
#        99531
#        110244
#        120765
#        132367
#        142003
#        153171
#        166890
#        184791
#        198067
#        205608
#        217254
#        229922
#        245040
#        255959
#        263356
#        268617
#        277435
#
# Disc length: 3807 seconds
#
# Revision: 0
# Processed by: cddbd v1.5.2PL0 Copyright (c) Steve Scherf et al.
# Submitted via: ExactAudioCopy v0.99pb1
#
DISCID=630edd18
DTITLE=Various Artist - The George Mitchell Collection, Volumes 1-45 - Disc 7
DTITLE=(bonus disc)
DYEAR=2008
DGENRE=Blues
TTITLE0=Jessie Lee Vortis - Miss Maybelle
TTITLE1=Jessie Lee Vortis - When My Baby Got On Board
TTITLE2=George Hollis - Them Greasy Greens #1
TTITLE3=George Hollis - Rock and Roll to Milledgeville
TTITLE4=Willie Rockomo - Black Rat Swing
TTITLE5=Bruce Upshaw and Willie Rockomo - Tease Me Baby #2
TTITLE6=Bruce Upshaw - Someday Baby #1
TTITLE7=Bruce Upshaw - Wonder Why My Baby Treat Me So Bad
TTITLE8=Bruce Upshaw - Rosa Lee
TTITLE9=Buddy Hubbard - I Got A Woman
TTITLE10=Buddy Hubbard - So Sweet
TTITLE11=Ira "Tiny" Coney - You're Gonna Miss Me
TTITLE12=Ira "Tiny" Coney - Mamie
TTITLE13=Ira "Tiny" Coney - I'm So Lonesome
TTITLE14=Eddie Hodge - Blood Red River
TTITLE15=Eddie Hodge - Sitting On Top of the World
TTITLE16=Eddie Hodge - Glory Hallelujah
TTITLE17=Pettis Sisters - Jesus Is Coming Back To Me
TTITLE18=Pettis Sisters - Bound For Zion
TTITLE19=Houston and Sara Mae Stovall - You Told Me Baby
TTITLE20=Houston and Sara Mae Stovall - Sweet As An Apple On A Tree
TTITLE21=Houston and Sara Mae Stovall - Juke #2
TTITLE22=Houston and Sara Mae Stovall - Woke Up This Morning
TTITLE23=Houston and Sara Mae Stovall - Tell Me You Love Me
EXTD=
EXTT0=
EXTT1=
EXTT2=
EXTT3=
EXTT4=
EXTT5=
EXTT6=
EXTT7=
EXTT8=
EXTT9=
EXTT10=
EXTT11=
EXTT12=
EXTT13=
EXTT14=
EXTT15=
EXTT16=
EXTT17=
EXTT18=
EXTT19=
EXTT20=
EXTT21=
EXTT22=
EXTT23=
PLAYORDER=
